<svg width="24" height="24" viewBox="0 0 24 24" xmlns="http://www.w3.org/2000/svg">
  <circle cx="12" cy="12" r="10" fill="currentColor"/>
  <path d="M12 2C6.48 2 2 6.48 2 12s4.48 10 10 10 10-4.48 10-10S17.52 2 12 2zm-1 17.93c-3.95-.49-7-3.85-7-7.93 0-.62.08-1.21.21-1.79L9 15v1c0 1.1.9 2 2 2v1.93zm6.9-2.54c-.26-.81-1-1.39-1.9-1.73 1.3 1.6 1.3 3.65 0 5.25-.6.74-1.44 1.18-2.3 1.35-.22-.75-.7-1.39-1.4-1.87 2.21-.23 4.1-1.74 4.8-3.65-.85.45-1.79.7-2.8.7-1.07 0-2.05-.28-2.92-.77-1.55.89-3.45.99-5.11.33-.36-.73-.63-1.54-.63-2.41 0-1.21.52-2.3 1.35-3.06-.59-.75-1.1-1.6-1.47-2.52-.54.28-1.16.45-1.82.45-1.1 0-2.12-.32-2.98-.86l1.07 3.52L8 17.39z" fill="currentColor"/>
</svg>
